# xmcd
#
# Track frame offsets:
#        150
#        32359
#        69010
#        105933
#        140433
#        167191
#        204953
#        235553
#        268525
#        298412
#
# Disc length: 4234 seconds
#
# Revision: 0
# Processed by: cddbd v1.5.1PL2 Copyright (c) Steve Scherf et al.
# Submitted via: ExactAudioCopy v0.95b3
#
DISCID=7f10880a
DTITLE=Various Artist - Khaotic dimension
DYEAR=2006
DGENRE=Hardcore
TTITLE0=Hattifnatt - Dasein
TTITLE1=Hase - (Reloop)
TTITLE2=Hase - Galatea
TTITLE3=Hase VS PSYFIX - Void of Farthest
TTITLE4=Betwixt and Between - Mirage
TTITLE5=Betwixt and Between - Reincarnation
TTITLE6=Betwixt and Between - Discord
TTITLE7=ThermalForce - Moving flare
TTITLE8=Betwixt and Between - PHASE 6
TTITLE9=/ et.[al Megiddo]
EXTD=
EXTT0=
EXTT1=
EXTT2=
EXTT3=
EXTT4=
EXTT5=
EXTT6=
EXTT7=
EXTT8=
EXTT9=
PLAYORDER=
